# AST/ASF file generated using VICON BodyLanguage
# -----------------------------------------------
:version 1.10
:name VICON
:units
  mass 1.0
  length 0.45
  angle deg
:documentation
   .ast/.asf automatically generated from VICON data using
   VICON BodyBuilder and BodyLanguage model FoxedUp or BRILLIANT.MOD
:root
   order TX TY TZ RX RY RZ
   axis XYZ
   position 0 0 0  
   orientation 0 0 0 
:bonedata
  begin
     id 1 
     name lhipjoint
     direction 0.521689 -0.742065 0.420928 
     length 2.47002 
     axis 0 0 0  XYZ
  end
  begin
     id 2 
     name lfemur
     direction 0.34202 -0.939693 0  
     length 7.24654  
     axis 0 0 20  XYZ
    dof rx ry rz
    limits (-160.0 20.0)
           (-70.0 70.0)
           (-60.0 70.0)
  end
  begin
     id 3 
     name ltibia
     direction 0.34202 -0.939693 0   
     length 8.04849   
     axis 0 0 20   XYZ
    dof rx
    limits (-10.0 170.0)
  end
  begin
     id 4 
     name lfoot
     direction 0.0745411 -0.2048 0.975961   
     length 1.72367   
     axis -90 7.62852e-016 20   XYZ
    dof rx rz
    limits (-45.0 90.0)
           (-70.0 20.0)
  end
  begin
     id 5 
     name ltoes
     direction 1.53556e-011 -4.21901e-011 1   
     length 0.87311   
     axis -90 7.62852e-016 20   XYZ
    dof rx
    limits (-90.0 20.0)
  end
  begin
     id 6 
     name rhipjoint
     direction -0.52849 -0.738415 0.418857   
     length 2.48223  
     axis 0 0 0  XYZ 
  end
  begin
     id 7 
     name rfemur
     direction -0.34202 -0.939693 0   
     length 7.15571   
     axis 0 0 -20   XYZ
    dof rx ry rz
    limits (-160.0 20.0)
           (-70.0 70.0)
           (-70.0 60.0)
  end
  begin
     id 8 
     name rtibia
     direction -0.34202 -0.939693 0   
     length 7.81659   
     axis 0 0 -20   XYZ
    dof rx
    limits (-10.0 170.0)
 end
 begin
     id 9 
     name rfoot
     direction -0.0917348 -0.252039 0.963359   
     length 1.84382  
     axis -90 -7.62852e-016 -20   XYZ
    dof rx rz
    limits (-45.0 90.0)
           (-20.0 70.0)
  end
  begin
     id 10 
     name rtoes
     direction -1.53551e-011 -4.21879e-011 1   
     length 0.927771   
     axis -90 -7.62852e-016 -20   XYZ
    dof rx
    limits (-90.0 20.0)
  end
  begin
     id 11 
     name lowerback
     direction 0.00583058 0.999822 0.0179296   
     length 2.1429   
     axis 0 0 0   XYZ
    dof rx ry rz
    limits (-20.0 45.0)
           (-30.0 30.0)
           (-30.0 30.0)
  end
  begin
     id 12 
     name upperback
     direction -0.0137999 0.999752 -0.0175071   
     length 2.14252   
     axis 0 0 0   XYZ
    dof rx ry rz
    limits (-20.0 45.0)
           (-30.0 30.0)
           (-30.0 30.0)
  end
  begin
     id 13 
     name thorax
     direction -0.0158036 0.99955 -0.0254909   
     length 2.1383   
     axis 0 0 0   XYZ
    dof rx ry rz
    limits (-20.0 45.0)
           (-30.0 30.0)
           (-30.0 30.0)
  end
  begin
     id 14 
     name lowerneck
     direction -0.0101179 0.999403 -0.0330262   
     length 1.65808   
     axis 0 0 0   XYZ
    dof rx ry rz
    limits (-20.0 45.0)
           (-30.0 30.0)
           (-30.0 30.0)
  end
  begin
     id 15 
     name upperneck
     direction 0.0497734 0.995978 -0.074501   
     length 1.5897   
     axis 0 0 0   XYZ
    dof rx ry rz
    limits (-20.0 45.0)
           (-30.0 30.0)
           (-30.0 30.0)
  end
  begin
     id 16
     name head
     direction 0.0189524 0.999519 -0.0245438  
     length 1.74024  
     axis 0 0 0   XYZ
    dof rx ry rz
    limits (-20.0 45.0)
           (-30.0 30.0)
           (-30.0 30.0)
  end
  begin
     id 17 
     name lclavicle
     direction 0.945604 0.324422 0.0241537  
     length 3.59089  
     axis 0 0 0   XYZ
    dof ry rz
    limits (-20.0 10.0)
           (0.0 20.0)
  end
  begin
     id 18 
     name lhumerus
     direction 1 -4.48964e-011 -2.63524e-027   
     length 5.2391   
     axis 180 -30 -90   XYZ
    dof rx ry rz
    limits (-60.0 90.0)
           (-90.0 90.0)
           (-90.0 90.0)
  end
  begin
     id 19
     name lradius
     direction 1 -4.48969e-011 3.86978e-028   
     length 3.31467   
     axis 180 -30 -90   XYZ
    dof rx
    limits (-10.0 170.0)
  end
  begin
     id 20
     name lwrist
     direction 1 -4.48963e-011 7.20928e-028   
     length 1.65734   
     axis -5.52449e-016 90 90   XYZ
    dof ry
    limits (-180.0 0.0)
 end
  begin
     id 21 
     name lhand
     direction 1 -4.48964e-011 1.44186e-027   
     length 0.9659   
     axis -9.20027e-016 90 90   XYZ
    dof rx rz
    limits (-90.0 90.0)
           (-45.0 45.0)
  end
  begin
     id 22 
     name lfingers
     direction 1 -4.48965e-011 2.88371e-027   
     length 0.778733   
     axis -1.84005e-015 90 90   XYZ
    dof rx
    limits (0.0 90.0)
  end
  begin
     id 23
     name lthumb
     direction 0.707107 -6.34931e-011 0.707107   
     length 1.11811   
     axis -90 45 2.85299e-015   XYZ
    dof rx rz
    limits (-45.0 45.0)
           (-45.0 45.0)
  end
  begin
     id 24 
     name rclavicle
     direction -0.923762 0.370785 0.0958234   
     length 3.54196  
     axis 0 0 0   XYZ 
    dof ry rz
    limits (-10.0 20.0)
           (-20.0 0.0)
  end
  begin
     id 25 
     name rhumerus
     direction -1 -4.48966e-011 1.18702e-017  
     length 5.30252   
     axis 180 30 90   XYZ
    dof rx ry rz
    limits (-90.0 60.0)
           (-90.0 90.0)
           (-90.0 90.0)
  end
  begin
     id 26 
     name rradius
     direction -1 -4.48966e-011 4.46736e-027   
     length 3.67875   
     axis 180 30 90   XYZ
    dof rx
    limits (-10.0 170.0)
  end
  begin
     id 27 
     name rwrist
     direction -1 -4.48966e-011 7.20928e-028   
     length 1.83937   
     axis -5.52449e-016 -90 -90   XYZ
    dof ry
    limits (-180.0 0.0)
  end
  begin
     id 28
     name rhand
     direction -1 -4.48973e-011 1.44186e-027   
     length 0.594811   
     axis -9.20027e-016 -90 -90   XYZ
    dof rx rz
    limits (-90.0 90.0)
           (-45.0 45.0)
  end
  begin
     id 29
     name rfingers
     direction -1 -4.48963e-011 2.88371e-027   
     length 0.479552   
     axis -1.84005e-015 -90 -90   XYZ
    dof rx
    limits (0.0 90.0)
  end
  begin
     id 30
     name rthumb
     direction -0.707107 -6.34932e-011 0.707107   
     length 0.688544   
     axis -90 -45 -2.85299e-015   XYZ
    dof rx rz
    limits (-45.0 45.0)
           (-45.0 45.0)
  end
:hierarchy
  begin
    root lhipjoint rhipjoint lowerback
    lhipjoint lfemur
    lfemur ltibia
    ltibia lfoot
    lfoot ltoes
    rhipjoint rfemur
    rfemur rtibia
    rtibia rfoot
    rfoot rtoes
    lowerback upperback
    upperback thorax
    thorax lowerneck lclavicle rclavicle
    lowerneck upperneck
    upperneck head
    lclavicle lhumerus
    lhumerus lradius
    lradius lwrist
    lwrist lhand lthumb
    lhand lfingers
    rclavicle rhumerus
    rhumerus rradius
    rradius rwrist
    rwrist rhand rthumb
    rhand rfingers
  end

#!OML:ASF E:\acrobat2\Project_11_07_03\Capture day 1\Session 1\Acrobat.ASF
:FULLY-SPECIFIED
:DEGREES
554
root 9.64344 28.188 -16.5813 8.52344 5.14422 -3.25326
lowerback 5.01029 1.17084 1.84113
upperback 1.86696 1.6446 -0.103038
thorax -0.834092 0.827071 -1.22971
lowerneck -1.47276 -2.81302 -1.38836
upperneck 10.1451 -4.01376 3.41964
head 3.65886 -1.89947 1.22234
rclavicle 1.97791e-014 3.97569e-015
rhumerus -36.874 -0.569785 -78.5282
rradius 35.507
rwrist 5.80378
rhand 0.246505 -19.1788
rfingers 7.12502
rthumb 25.8265 -47.4455
lclavicle 1.97791e-014 3.97569e-015
lhumerus -34.4693 -12.8562 80.3689
lradius 40.1375
lwrist 8.61435
lhand -10.5139 -13.594
lfingers 7.12502
lthumb 15.4887 15.8056
rfemur -15.6257 -8.92445 21.41
rtibia 32.5759
rfoot -15.5249 -7.75533
rtoes -8.07267
lfemur -21.5905 -4.98819 -15.0621
ltibia 23.887
lfoot 4.25673 -1.67945
ltoes 23.6977
555
root 9.63149 28.1888 -16.5072 8.45653 5.34716 -3.27778
lowerback 4.94496 1.1748 1.80067
upperback 1.85825 1.64648 -0.131352
thorax -0.806899 0.828226 -1.23471
lowerneck -1.46867 -2.86065 -1.31605
upperneck 10.2433 -4.08527 3.43512
head 3.69314 -1.9304 1.21208
rclavicle -7.95139e-016 -2.10712e-014
rhumerus -36.9215 -0.334095 -78.6749
rradius 35.7683
rwrist 5.79589
rhand 0.339859 -19.0361
rfingers 7.12502
rthumb 25.9159 -47.2897
lclavicle -7.95139e-016 -2.10712e-014
lhumerus -34.5488 -12.7587 80.1501
lradius 40.5033
lwrist 8.83931
lhand -10.2793 -13.5936
lfingers 7.12502
lthumb 15.7146 15.7883
rfemur -15.23 -8.86821 21.7159
rtibia 32.9644
rfoot -16.0354 -7.72528
rtoes -9.1902
lfemur -21.693 -5.27807 -14.8015
ltibia 23.4002
lfoot 5.04412 -0.7754
ltoes 24.2143
556
root 9.62103 28.1886 -16.4293 8.36669 5.54047 -3.3275
lowerback 4.86985 1.18024 1.80826
upperback 1.86211 1.65244 -0.148833
thorax -0.760127 0.831818 -1.25528
lowerneck -1.5731 -2.91685 -1.22924
upperneck 10.3974 -4.16577 3.3989
head 3.76631 -1.96551 1.18035
rclavicle -9.83984e-015 8.74653e-015
rhumerus -36.9894 -0.0992916 -78.8031
rradius 36.0669
rwrist 5.77604
rhand 0.473629 -19.0075
rfingers 7.12502
rthumb 26.0439 -47.2423
lclavicle -9.83984e-015 8.74653e-015
lhumerus -34.6709 -12.6616 79.9453
lradius 40.9182
lwrist 9.09285
lhand -10.0936 -13.6009
lfingers 7.12502
lthumb 15.8935 15.7669
rfemur -14.6838 -8.691 22.0407
rtibia 32.9636
rfoot -16.5166 -7.69444
rtoes -10.5781
lfemur -21.7147 -5.6099 -14.4944
ltibia 22.8568
lfoot 5.71177 0.126977
ltoes 24.8814
557
root 9.61239 28.1874 -16.3485 8.25483 5.7115 -3.39738
lowerback 4.79134 1.19144 1.86413
upperback 1.87738 1.66815 -0.159205
thorax -0.698178 0.84067 -1.29582
lowerneck -1.7588 -2.98008 -1.16609
upperneck 10.5904 -4.25656 3.3685
head 3.87042 -2.00509 1.15307
rclavicle 3.0911e-014 -2.38542e-015
rhumerus -37.0655 0.143664 -78.9166
rradius 36.3894
rwrist 5.72985
rhand 0.627398 -19.1125
rfingers 7.12502
rthumb 26.1912 -47.3255
lclavicle 3.0911e-014 -2.38542e-015
lhumerus -34.8306 -12.5565 79.7534
lradius 41.3761
lwrist 9.35622
lhand -9.9707 -13.6215
lfingers 7.12502
lthumb 16.0119 15.7368
rfemur -14.0043 -8.39356 22.38
rtibia 32.5662
rfoot -17.0022 -7.7131
rtoes -12.2129
lfemur -21.6657 -5.95722 -14.1527
ltibia 22.2721
lfoot 6.22399 0.996097
ltoes 25.7176
558
root 9.60515 28.1848 -16.2667 8.13711 5.86366 -3.48721
lowerback 4.71113 1.20365 1.96015
upperback 1.89772 1.68691 -0.156675
thorax -0.629106 0.851313 -1.34559
lowerneck -1.99046 -3.03789 -1.14012
upperneck 10.8031 -4.33966 3.34492
head 3.99207 -2.04133 1.13404
rclavicle -8.64713e-015 -2.14687e-014
rhumerus -37.1361 0.410418 -79.0129
rradius 36.7184
rwrist 5.65895
rhand 0.733941 -19.2684
rfingers 7.12502
rthumb 26.2932 -47.4662
lclavicle -8.64713e-015 -2.14687e-014
lhumerus -34.9879 -12.4116 79.5752
lradius 41.8159
lwrist 9.59877
lhand -9.90131 -13.662
lfingers 7.12502
lthumb 16.0787 15.6909
rfemur -13.2414 -7.98725 22.7411
rtibia 31.8128
rfoot -17.5418 -7.81231
rtoes -13.9591
lfemur -21.5846 -6.28813 -13.7756
ltibia 21.6646
lfoot 6.56851 1.79213
ltoes 26.9231
559
root 9.59896 28.1806 -16.1856 8.03631 6.00869 -3.59222
lowerback 4.62109 1.21383 2.09475
upperback 1.91542 1.70429 -0.146037
thorax -0.556342 0.861502 -1.40832
lowerneck -2.24294 -3.09352 -1.12391
upperneck 11.0202 -4.41743 3.3009
head 4.11952 -2.07592 1.10949
rclavicle -2.05742e-014 9.54166e-015
rhumerus -37.199 0.672591 -79.0933
rradius 37.0385
rwrist 5.57884
rhand 0.750575 -19.4017
rfingers 7.12502
rthumb 26.3091 -47.5972
lclavicle -2.05742e-014 9.54166e-015
lhumerus -35.1211 -12.2404 79.4071
lradius 42.2073
lwrist 9.82042
lhand -9.87546 -13.6983
lfingers 7.12502
lthumb 16.1036 15.6526
rfemur -12.4564 -7.5014 23.1245
rtibia 30.7541
rfoot -18.1468 -7.99599
rtoes -15.7623
lfemur -21.5206 -6.57949 -13.3664
ltibia 21.0637
lfoot 6.74528 2.4654
ltoes 28.5868
560
root 9.59332 28.1748 -16.1069 7.96763 6.1477 -3.69859
lowerback 4.52942 1.22185 2.2538
upperback 1.9175 1.7196 -0.13468
thorax -0.497954 0.870565 -1.48405
lowerneck -2.49113 -3.14726 -1.09605
upperneck 11.236 -4.48885 3.21493
head 4.24443 -2.10883 1.06875
rclavicle -5.96354e-016 -1.15295e-014
rhumerus -37.2538 0.896502 -79.1551
rradius 37.3255
rwrist 5.50267
rhand 0.672888 -19.4383
rfingers 7.12502
rthumb 26.2347 -47.6448
lclavicle -5.96354e-016 -1.15295e-014
lhumerus -35.2343 -12.0655 79.2494
lradius 42.5441
lwrist 10.0301
lhand -9.89264 -13.6839
lfingers 7.12502
lthumb 16.087 15.6684
rfemur -11.6999 -6.96003 23.516
rtibia 29.4508
rfoot -18.7921 -8.22048
rtoes -17.407
lfemur -21.5067 -6.8026 -12.9409
ltibia 20.4973
lfoot 6.76952 2.97343
ltoes 30.6383
561
root 9.58775 28.1675 -16.0311 7.93315 6.27814 -3.80253
lowerback 4.45358 1.22835 2.42749
upperback 1.89561 1.73386 -0.123076
thorax -0.472511 0.878597 -1.56843
lowerneck -2.7286 -3.194 -1.06861
upperneck 11.4533 -4.54799 3.10439
head 4.36723 -2.13702 1.02009
rclavicle 3.16068e-014 0
rhumerus -37.3046 1.07648 -79.1962
rradius 37.5608
rwrist 5.43343
rhand 0.524809 -19.3518
rfingers 7.12502
rthumb 26.093 -47.5793
lclavicle 3.16068e-014 0
lhumerus -35.3166 -11.8995 79.1047
lradius 42.804
lwrist 10.2217
lhand -9.95831 -13.6061
lfingers 7.12502
lthumb 16.0238 15.7513
rfemur -11.0042 -6.39304 23.9107
rtibia 27.9773
rfoot -19.4212 -8.43458
rtoes -18.7168
lfemur -21.5465 -6.94065 -12.5046
ltibia 19.9723
lfoot 6.67028 3.29507
ltoes 32.8568
562
root 9.58255 28.1591 -15.9575 7.92824 6.39086 -3.89513
lowerback 4.38869 1.24182 2.61197
upperback 1.85904 1.75801 -0.118745
thorax -0.467106 0.891224 -1.66722
lowerneck -2.96969 -3.23967 -1.05345
upperneck 11.6696 -4.6052 3.0001
head 4.49161 -2.16463 0.975332
rclavicle -1.59028e-014 2.94201e-014
rhumerus -37.3493 1.19723 -79.2193
rradius 37.7445
rwrist 5.35608
rhand 0.372223 -19.2207
rfingers 7.12502
rthumb 25.9468 -47.4697
lclavicle -1.59028e-014 2.94201e-014
lhumerus -35.3535 -11.7659 78.9724
lradius 42.9873
lwrist 10.3803
lhand -10.0728 -13.5166
lfingers 7.12502
lthumb 15.9135 15.8496
rfemur -10.3919 -5.84827 24.2914
rtibia 26.4306
rfoot -19.9746 -8.60194
rtoes -19.7249
lfemur -21.6245 -7.00085 -12.0735
ltibia 19.4809
lfoot 6.47351 3.41122
ltoes 34.8586
